<?xml version="1.0" standalone="no"?>
<!DOCTYPE svg PUBLIC "-//W3C//DTD SVG 20010904//EN"
 "http://www.w3.org/TR/2001/REC-SVG-20010904/DTD/svg10.dtd">
<svg version="1.0" xmlns="http://www.w3.org/2000/svg"
 width="500.000000pt" height="500.000000pt" viewBox="0 0 500.000000 500.000000"
 preserveAspectRatio="xMidYMid meet">
<metadata>
Created by potrace 1.11, written by Peter Selinger 2001-2013
</metadata>
<g transform="translate(0.000000,500.000000) scale(0.100000,-0.100000)"
fill="#000000" stroke="none">
<path d="M2183 4985 c-301 -40 -578 -128 -843 -266 -734 -384 -1241 -1124
-1329 -1941 -14 -125 -14 -431 0 -556 32 -295 129 -612 269 -880 248 -473 640
-854 1115 -1087 245 -120 468 -191 725 -232 164 -26 596 -26 760 0 257 41 480
112 725 232 248 121 467 277 660 470 406 406 664 940 724 1497 14 125 14 431
0 556 -60 557 -318 1091 -724 1497 -193 192 -412 349 -660 470 -239 117 -466
190 -720 231 -137 22 -563 28 -702 9z m879 -1042 c50 -45 60 -102 28 -170
l-19 -42 414 -3 c400 -3 414 -4 442 -24 47 -35 64 -79 61 -159 -2 -52 -10 -84
-31 -125 -54 -109 -161 -245 -314 -398 -84 -84 -153 -157 -153 -161 0 -25 337
-155 548 -211 96 -26 103 -37 78 -124 -20 -67 -88 -146 -127 -146 -34 0 -296
90 -436 150 -65 28 -162 76 -216 106 -53 29 -101 54 -106 54 -6 0 -74 -33
-153 -74 -163 -85 -324 -156 -480 -211 -125 -44 -144 -41 -203 27 -63 74 -84
158 -45 179 8 5 85 33 170 63 85 30 219 83 298 117 112 49 142 66 142 81 0 11
-33 54 -73 96 -40 42 -101 112 -136 155 -35 42 -69 77 -75 77 -7 0 -28 -16
-47 -36 -53 -55 -118 -94 -157 -94 -39 0 -101 27 -109 47 -11 27 -20 11 -26
-43 -12 -119 -112 -270 -226 -344 -64 -40 -150 -69 -233 -77 l-68 -6 0 -163 0
-164 220 0 c243 0 270 -5 287 -57 16 -46 6 -115 -21 -141 -23 -23 -25 -23
-254 -23 l-232 0 0 -439 0 -440 56 0 c75 0 236 34 336 70 96 35 131 37 175 10
46 -28 57 -55 54 -132 -2 -61 -107 -116 -321 -169 -124 -31 -391 -38 -532 -14
-182 30 -417 120 -495 188 -20 18 -45 52 -56 77 -20 43 -20 64 -18 514 2 388
5 475 17 498 42 81 160 85 216 8 18 -24 19 -51 18 -443 0 -484 -3 -470 83
-510 48 -23 215 -77 238 -77 5 0 9 300 9 704 l0 703 -97 6 c-155 8 -265 58
-363 163 -58 62 -83 103 -111 184 -22 61 -24 80 -24 290 0 210 2 229 23 290
32 88 72 149 142 214 68 62 140 99 237 122 55 13 113 15 308 12 216 -4 246 -7
300 -27 114 -42 219 -128 274 -226 46 -81 63 -149 70 -277 l6 -119 123 117
c141 134 256 281 330 422 28 54 62 108 76 121 45 42 133 45 178 4z m-369
-1627 c18 -7 41 -23 52 -36 19 -21 20 -40 25 -439 6 -449 7 -458 61 -511 34
-32 119 -68 217 -91 244 -58 558 14 629 144 16 29 19 76 23 453 5 404 6 423
25 444 45 51 116 59 174 22 50 -33 51 -48 51 -529 l0 -448 -24 -51 c-88 -188
-356 -307 -691 -307 -329 0 -589 111 -677 291 l-33 67 -3 447 c-4 510 -4 504
72 539 49 22 58 23 99 5z m873 -27 c48 -49 39 -149 -16 -179 -27 -15 -603 -15
-630 0 -70 38 -60 169 15 201 11 4 152 7 312 6 l293 -2 26 -26z"/>
<path d="M1445 3671 c-51 -13 -89 -37 -132 -84 -61 -67 -68 -96 -68 -302 0
-161 2 -185 21 -225 25 -54 72 -103 128 -133 39 -21 53 -22 276 -22 l235 0 54
30 c110 61 141 138 141 355 0 217 -31 294 -141 355 l-54 30 -215 2 c-118 1
-228 -2 -245 -6z"/>
<path d="M2862 3478 c-7 -7 -12 -18 -12 -24 0 -40 323 -417 377 -440 15 -6 36
-9 47 -6 46 12 317 312 367 407 41 77 52 75 -385 75 -284 0 -385 -3 -394 -12z"/>
</g>
</svg>
