<?xml version="1.0" standalone="no"?><!DOCTYPE svg PUBLIC "-//W3C//DTD SVG 1.1//EN" "http://www.w3.org/Graphics/SVG/1.1/DTD/svg11.dtd"><svg t="1622609404550" class="icon" viewBox="0 0 1024 1024" version="1.1" xmlns="http://www.w3.org/2000/svg" p-id="6074" xmlns:xlink="http://www.w3.org/1999/xlink" width="200" height="200"><defs><style type="text/css"></style></defs><path d="M512 31.25778198a480.74221802 480.74221802 0 1 0 480.74221802 480.74221802A480.74221802 480.74221802 0 0 0 512 31.25778198z m188.80058051 674.78725857a47.63718299 47.63718299 0 0 1-27.09637973 12.6741132 43.70383843 43.70383843 0 0 1-38.02233958-11.80003652c-27.09637973-25.78526425-53.31868279-52.44460517-79.97802277-78.66690823l-40.64456959-40.20753079c-3.4963067-3.05926884-3.4963067-3.05926884-6.55557554 0l-112.7559023 112.7559023a64.24464169 64.24464169 0 0 1-22.72599542 15.73338108A51.5705285 51.5705285 0 0 1 308.77715296 686.81535184a49.38533728 49.38533728 0 0 1 12.67411318-54.62979733l27.09637973-27.53341761 87.40767592-87.40767591c3.4963067-3.9333455 3.4963067-3.9333455 0-7.42965315l-7.4296522-7.4296522C394.87371433 468.29616157 361.65879693 434.64420631 328.88091834 400.99225105A119.7485157 119.7485157 0 0 1 312.27346059 380.88848566a49.82237515 49.82237515 0 0 1 19.22968872-68.61502507 43.70383843 43.70383843 0 0 1 24.91118758-6.11853766 48.94829848 48.94829848 0 0 1 38.45937744 16.17041988l111.88182468 111.88182563c0 2.18519216 3.4963067 2.18519216 5.6814998 0l20.10376539-20.10376539c29.71860976-29.71860976 59.43721951-59.43721951 89.59286714-87.40767593a87.40767592 87.40767592 0 0 1 15.29634415-13.54818985 49.38533728 49.38533728 0 0 1 55.0668352 0 47.63718299 47.63718299 0 0 1 23.60007303 48.0742218 49.82237515 49.82237515 0 0 1-15.73338202 31.90380191l-113.19294016 113.19294016-2.62223003 2.62223002v4.37038431l2.62223003 2.62223003 113.19294016 113.19294017a52.00756731 52.00756731 0 0 1 16.17041989 39.33345412 48.0742218 48.0742218 0 0 1-15.73338108 37.58530076z" p-id="6075" fill="#d81e06"></path></svg>