<svg xmlns="http://www.w3.org/2000/svg" width="600" height="600" viewBox="0 0 600 600"><path d="M300,0C134.31,0,0,134.31,0,300S134.31,600,300,600,600,465.69,600,300,465.69,0,300,0ZM473,276.36c-23.37,20.47-46.56,41.15-70.13,61.4-7.83,6.73-10.36,14-7.79,24.13,7.25,28.6,13.86,57.36,20.81,86,1.86,7.7.17,14.25-6.18,19s-13.17,4.38-20,.36c-26.13-15.42-52.37-30.67-78.44-46.2-7.73-4.61-14.86-4.65-22.61,0-26.07,15.54-52.28,30.83-78.45,46.18-8.44,5-16.29,4-22.51-2.74-4.32-4.68-5.23-10.22-3.74-16.31,7.19-29.46,14.27-58.94,21.55-88.38,2-8.23,0-14.79-6.37-20.36-23.32-20.36-46.51-40.87-69.82-61.23-4-3.53-7.51-7.3-8.84-12.65V260c1.93-3.37,3.48-7.06,5.9-10,2.8-3.43,7.2-4.08,11.45-4.48q38.7-3.64,77.42-7.26c6.27-.59,12.55-1.2,18.82-1.87,7.56-.81,12.52-4.85,15.39-11.93q16.77-41.34,33.76-82.58c4-9.75,11.26-13.87,20.65-11.75A15.73,15.73,0,0,1,315.38,140c6.83,16.36,13.56,32.76,20.33,49.14,4.67,11.32,9.5,22.57,14,34,3.22,8.26,8.82,12.76,17.73,13.54,20.82,1.83,41.62,3.86,62.42,5.83q17.08,1.62,34.17,3.32c7.45.75,12.27,5.11,14.5,11.94C480.83,265,478.85,271.27,473,276.36Z" fill="#ffa200"/></svg>