<?xml version="1.0" standalone="no"?><!DOCTYPE svg PUBLIC "-//W3C//DTD SVG 1.1//EN" "http://www.w3.org/Graphics/SVG/1.1/DTD/svg11.dtd"><svg t="1622609372816" class="icon" viewBox="0 0 1024 1024" version="1.1" xmlns="http://www.w3.org/2000/svg" p-id="5870" xmlns:xlink="http://www.w3.org/1999/xlink" width="200" height="200"><defs><style type="text/css"></style></defs><path d="M512 31.25778198a480.74221802 480.74221802 0 1 0 480.74221802 480.74221802A480.74221802 480.74221802 0 0 0 512 31.25778198z m267.46748875 362.30481686l-98.77067363 99.20771244-204.09692372 204.09692372a53.31868279 53.31868279 0 0 1-38.89641626 17.04449657 46.76310632 46.76310632 0 0 1-31.90380192-13.11115106L241.03620457 535.60007209A46.76310632 46.76310632 0 0 1 307.0289996 468.29616157c41.08160746 40.20753079 81.28913826 80.85210039 121.93370786 121.49666999l10.05188316 9.17780649 10.92595985-10.05188317 265.28229657-265.28229658a43.70383843 43.70383843 0 0 1 47.63718301-10.92595984 43.70383843 43.70383843 0 0 1 31.4667631 35.40010861 47.63718299 47.63718299 0 0 1-14.8593044 45.45199177z" p-id="5871" fill="#2594a2"></path></svg>